<svg width="357" height="261" viewBox="0 0 357 261" fill="none" xmlns="http://www.w3.org/2000/svg">
<g clip-path="url(#clip0)">
<g opacity="0.05">
<rect width="91.227" height="11.0216" transform="matrix(-1 0 0 1 344.87 49.2275)" fill="#064D40"/>
<rect width="41.7666" height="11.0216" transform="matrix(-1 0 0 1 344.87 49.2275)" fill="#AFD485"/>
<rect width="125.849" height="199.892" transform="matrix(-1 0 0 1 356.41 60.249)" fill="#064D40"/>
<rect width="53.3074" height="199.892" transform="matrix(-1 0 0 1 356.41 60.249)" fill="#AFD485"/>
<path d="M344.87 231.668C344.87 223.321 338.104 216.555 329.757 216.555C321.41 216.555 314.644 223.321 314.644 231.668V260.141H344.87V231.668Z" fill="#45A554"/>
<rect width="9.34252" height="13.5266" transform="matrix(-1 0 0 1 344.87 193.01)" fill="#45A554"/>
<rect width="9.34252" height="13.5266" transform="matrix(-1 0 0 1 323.987 193.01)" fill="#45A554"/>
<rect width="9.34252" height="13.5266" transform="matrix(-1 0 0 1 344.87 166.458)" fill="#45A554"/>
<rect width="9.34252" height="13.5266" transform="matrix(-1 0 0 1 323.987 166.457)" fill="#45A554"/>
<rect width="9.34252" height="13.5266" transform="matrix(-1 0 0 1 344.87 139.905)" fill="#45A554"/>
<rect width="9.34252" height="13.5266" transform="matrix(-1 0 0 1 323.987 139.904)" fill="#45A554"/>
<rect width="9.34252" height="13.5266" transform="matrix(-1 0 0 1 344.87 113.353)" fill="#45A554"/>
<rect width="9.34252" height="13.5266" transform="matrix(-1 0 0 1 323.987 113.353)" fill="#45A554"/>
<rect width="9.34252" height="21.0413" transform="matrix(-1 0 0 1 344.87 78.7854)" fill="#45A554"/>
<rect width="9.34252" height="21.0413" transform="matrix(-1 0 0 1 323.987 78.7849)" fill="#45A554"/>
<path d="M344.87 74.9401C344.87 72.3602 342.779 70.2688 340.199 70.2688C337.619 70.2688 335.527 72.3602 335.527 74.9401V78.7855H344.87V74.9401Z" fill="#45A554"/>
<path d="M323.986 74.9401C323.986 72.3602 321.895 70.2688 319.315 70.2688C316.735 70.2688 314.644 72.3602 314.644 74.9401V78.7855H323.986V74.9401Z" fill="#45A554"/>
<rect width="96.7175" height="12.818" transform="matrix(-1 0 0 1 267.667 14.8523)" fill="#064D40"/>
<rect width="44.2803" height="12.818" transform="matrix(-1 0 0 1 267.667 14.8523)" fill="#AFD485"/>
<rect width="133.424" height="232.472" transform="matrix(-1 0 0 1 279.903 27.6697)" fill="#064D40"/>
<rect width="56.5157" height="232.472" transform="matrix(-1 0 0 1 279.903 27.6697)" fill="#AFD485"/>
<path d="M267.667 225.474C267.667 216.625 260.493 209.452 251.645 209.452C242.796 209.452 235.622 216.625 235.622 225.474V260.141H267.667V225.474Z" fill="#45A554"/>
<rect width="9.90481" height="15.7312" transform="matrix(-1 0 0 1 267.667 182.068)" fill="#45A554"/>
<rect width="9.90481" height="15.7312" transform="matrix(-1 0 0 1 245.528 182.068)" fill="#45A554"/>
<rect width="9.90481" height="15.7312" transform="matrix(-1 0 0 1 267.667 151.188)" fill="#45A554"/>
<rect width="9.90481" height="15.7312" transform="matrix(-1 0 0 1 245.528 151.188)" fill="#45A554"/>
<rect width="9.90481" height="15.7312" transform="matrix(-1 0 0 1 267.667 120.309)" fill="#45A554"/>
<rect width="9.90481" height="15.7312" transform="matrix(-1 0 0 1 245.528 120.309)" fill="#45A554"/>
<rect width="9.90481" height="15.7312" transform="matrix(-1 0 0 1 267.667 89.4299)" fill="#45A554"/>
<rect width="9.90481" height="15.7312" transform="matrix(-1 0 0 1 245.528 89.4294)" fill="#45A554"/>
<rect width="9.90481" height="24.4707" transform="matrix(-1 0 0 1 267.667 49.2285)" fill="#45A554"/>
<rect width="9.90481" height="24.4707" transform="matrix(-1 0 0 1 245.528 49.2275)" fill="#45A554"/>
<path d="M267.667 44.2744C267.667 41.5393 265.45 39.322 262.715 39.322C259.979 39.322 257.762 41.5393 257.762 44.2744V49.2268H267.667V44.2744Z" fill="#45A554"/>
<path d="M245.528 44.2744C245.528 41.5393 243.311 39.322 240.576 39.322C237.84 39.322 235.623 41.5393 235.623 44.2744V49.2268H245.528V44.2744Z" fill="#45A554"/>
<rect width="10.4874" height="15.7312" transform="matrix(-1 0 0 1 190.176 89.4294)" fill="#AFD485"/>
<rect width="10.4874" height="15.7312" transform="matrix(-1 0 0 1 168.619 89.4294)" fill="#AFD485"/>
<rect width="10.4874" height="15.7312" transform="matrix(-1 0 0 1 190.176 120.309)" fill="#AFD485"/>
<rect width="10.4874" height="15.7312" transform="matrix(-1 0 0 1 168.619 120.309)" fill="#AFD485"/>
<rect width="10.4874" height="15.7312" transform="matrix(-1 0 0 1 190.176 151.188)" fill="#AFD485"/>
<rect width="10.4874" height="15.7312" transform="matrix(-1 0 0 1 168.619 151.188)" fill="#AFD485"/>
<rect width="10.4874" height="15.7312" transform="matrix(-1 0 0 1 190.176 182.069)" fill="#AFD485"/>
<rect width="10.4874" height="15.7312" transform="matrix(-1 0 0 1 168.619 182.069)" fill="#AFD485"/>
<rect width="10.4874" height="15.7312" transform="matrix(-1 0 0 1 190.176 212.948)" fill="#AFD485"/>
<rect width="10.4874" height="15.7312" transform="matrix(-1 0 0 1 168.619 212.948)" fill="#AFD485"/>
<rect width="91.227" height="11.0216" transform="matrix(-1 0 0 1 186.394 49.2275)" fill="#064D40"/>
<rect width="41.7666" height="11.0216" transform="matrix(-1 0 0 1 186.394 49.2275)" fill="#AFD485"/>
<rect width="125.849" height="199.892" transform="matrix(-1 0 0 1 197.935 60.2495)" fill="#064D40"/>
<rect width="53.3074" height="199.892" transform="matrix(-1 0 0 1 197.935 60.2495)" fill="#AFD485"/>
<rect width="52.2082" height="160.315" transform="matrix(-1 0 0 1 124.294 99.8274)" fill="#9CC653"/>
<rect width="10.4416" height="160.315" transform="matrix(-1 0 0 1 134.736 99.8274)" fill="#89AD49"/>
<path d="M186.395 231.67C186.395 223.323 179.629 216.557 171.282 216.557C162.935 216.557 156.169 223.323 156.169 231.67V260.142H186.395V231.67Z" fill="#45A554"/>
<rect width="9.34252" height="13.5266" transform="matrix(-1 0 0 1 186.395 193.01)" fill="#45A554"/>
<rect width="9.34252" height="13.5266" transform="matrix(-1 0 0 1 165.512 193.01)" fill="#45A554"/>
<rect width="9.34252" height="13.5266" transform="matrix(-1 0 0 1 186.395 166.458)" fill="#45A554"/>
<rect width="9.34252" height="13.5266" transform="matrix(-1 0 0 1 165.512 166.458)" fill="#45A554"/>
<rect width="9.34252" height="13.5266" transform="matrix(-1 0 0 1 186.395 139.907)" fill="#45A554"/>
<rect width="9.34252" height="13.5266" transform="matrix(-1 0 0 1 165.512 139.907)" fill="#45A554"/>
<rect width="9.34252" height="13.5266" transform="matrix(-1 0 0 1 186.395 113.354)" fill="#45A554"/>
<rect width="9.34252" height="13.5266" transform="matrix(-1 0 0 1 165.512 113.354)" fill="#45A554"/>
<rect width="9.34252" height="21.0413" transform="matrix(-1 0 0 1 186.395 78.7861)" fill="#45A554"/>
<rect width="9.34252" height="21.0413" transform="matrix(-1 0 0 1 165.512 78.7856)" fill="#45A554"/>
<path d="M186.395 74.941C186.395 72.3612 184.304 70.2698 181.724 70.2698C179.144 70.2698 177.052 72.3612 177.052 74.941V78.7865H186.395V74.941Z" fill="#45A554"/>
<path d="M165.512 74.941C165.512 72.3612 163.42 70.2698 160.84 70.2698C158.26 70.2698 156.169 72.3612 156.169 74.941V78.7865H165.512V74.941Z" fill="#45A554"/>
<rect width="9.89209" height="13.5266" transform="matrix(-1 0 0 1 113.303 113.354)" fill="#AFD485"/>
<rect width="9.89209" height="13.5266" transform="matrix(-1 0 0 1 92.9688 113.354)" fill="#AFD485"/>
<rect width="9.89209" height="13.5266" transform="matrix(-1 0 0 1 113.303 139.905)" fill="#AFD485"/>
<rect width="9.89209" height="13.5266" transform="matrix(-1 0 0 1 92.9688 139.905)" fill="#AFD485"/>
<rect width="9.89209" height="13.5266" transform="matrix(-1 0 0 1 113.303 166.457)" fill="#AFD485"/>
<rect width="9.89209" height="13.5266" transform="matrix(-1 0 0 1 92.9688 166.457)" fill="#AFD485"/>
<rect width="9.89209" height="13.5266" transform="matrix(-1 0 0 1 113.303 193.01)" fill="#AFD485"/>
<rect width="9.89209" height="13.5266" transform="matrix(-1 0 0 1 92.9688 193.01)" fill="#AFD485"/>
<rect width="9.89209" height="13.5266" transform="matrix(-1 0 0 1 113.303 219.562)" fill="#AFD485"/>
<rect width="9.89209" height="13.5266" transform="matrix(-1 0 0 1 92.9688 219.562)" fill="#AFD485"/>
<path d="M69.5234 259.968V198.339" stroke="#121715" stroke-width="5.74643"/>
<path fill-rule="evenodd" clip-rule="evenodd" d="M50.341 181.648C47.7522 178.003 46.2302 173.548 46.2302 168.737C46.2302 156.408 56.2243 146.414 68.5526 146.414C80.8809 146.414 90.875 156.408 90.875 168.737C90.875 173.294 89.5093 177.532 87.1648 181.065C91.8535 185.724 94.7565 192.178 94.7565 199.31C94.7565 213.514 83.2416 225.029 69.0372 225.029C54.8329 225.029 43.318 213.514 43.318 199.31C43.318 192.471 45.9873 186.255 50.341 181.648Z" fill="#348B42"/>
<path d="M39.625 259.967V212.293" stroke="#121715" stroke-width="4.44526"/>
<path fill-rule="evenodd" clip-rule="evenodd" d="M24.7856 199.382C22.783 196.562 21.6057 193.116 21.6057 189.394C21.6057 179.857 29.3368 172.126 38.8736 172.126C48.4104 172.126 56.1415 179.857 56.1415 189.394C56.1415 192.919 55.0851 196.198 53.2715 198.93C56.8986 202.534 59.1443 207.527 59.1443 213.044C59.1443 224.032 50.2367 232.94 39.2486 232.94C28.2606 232.94 19.353 224.032 19.353 213.044C19.353 207.754 21.4178 202.946 24.7856 199.382Z" fill="#45A554"/>
</g>
<g opacity="0.05">
<rect x="12.2393" y="36.4565" width="96.7507" height="11.689" fill="#064D40"/>
<rect x="12.2393" y="36.4565" width="44.2955" height="11.689" fill="#AFD485"/>
<rect y="48.1458" width="133.469" height="211.996" fill="#064D40"/>
<rect y="48.1458" width="56.535" height="211.996" fill="#AFD485"/>
<path d="M12.2393 229.945C12.2393 221.093 19.4152 213.917 28.2672 213.917C37.1192 213.917 44.2952 221.093 44.2952 229.945V260.142H12.2393V229.945Z" fill="#45A554"/>
<rect x="12.2393" y="188.946" width="9.9082" height="14.3456" fill="#45A554"/>
<rect x="34.3874" y="188.945" width="9.9082" height="14.3456" fill="#45A554"/>
<rect x="12.2393" y="160.786" width="9.9082" height="14.3456" fill="#45A554"/>
<rect x="34.3874" y="160.785" width="9.9082" height="14.3456" fill="#45A554"/>
<rect x="12.2393" y="132.626" width="9.9082" height="14.3456" fill="#45A554"/>
<rect x="34.3874" y="132.625" width="9.9082" height="14.3456" fill="#45A554"/>
<rect x="12.2393" y="104.466" width="9.9082" height="14.3456" fill="#45A554"/>
<rect x="34.3874" y="104.466" width="9.9082" height="14.3456" fill="#45A554"/>
<rect x="12.2393" y="67.8047" width="9.9082" height="22.3153" fill="#45A554"/>
<rect x="34.3874" y="67.8047" width="9.9082" height="22.3153" fill="#45A554"/>
<path d="M12.2393 63.7261C12.2393 60.99 14.4573 58.772 17.1934 58.772C19.9294 58.772 22.1475 60.99 22.1475 63.7261V67.8044H12.2393V63.7261Z" fill="#45A554"/>
<path d="M34.3873 63.7261C34.3873 60.99 36.6054 58.772 39.3414 58.772C42.0775 58.772 44.2955 60.99 44.2955 63.7261V67.8044H34.3873V63.7261Z" fill="#45A554"/>
<rect x="94.1165" width="102.574" height="13.5941" fill="#064D40"/>
<rect x="94.1165" width="46.9614" height="13.5941" fill="#AFD485"/>
<rect x="81.1401" y="13.5942" width="141.502" height="246.547" fill="#064D40"/>
<rect x="81.1401" y="13.5942" width="59.9376" height="246.547" fill="#AFD485"/>
<path d="M94.1161 223.376C94.1161 213.991 101.724 206.383 111.109 206.383C120.493 206.383 128.101 213.991 128.101 223.376V260.142H94.1161V223.376Z" fill="#45A554"/>
<rect x="94.1161" y="177.341" width="10.5045" height="16.6837" fill="#45A554"/>
<rect x="117.596" y="177.341" width="10.5045" height="16.6837" fill="#45A554"/>
<rect x="94.1161" y="144.592" width="10.5045" height="16.6837" fill="#45A554"/>
<rect x="117.596" y="144.592" width="10.5045" height="16.6837" fill="#45A554"/>
<rect x="94.1161" y="111.843" width="10.5045" height="16.6837" fill="#45A554"/>
<rect x="117.596" y="111.842" width="10.5045" height="16.6837" fill="#45A554"/>
<rect x="94.1161" y="79.0928" width="10.5045" height="16.6837" fill="#45A554"/>
<rect x="117.596" y="79.0925" width="10.5045" height="16.6837" fill="#45A554"/>
<rect x="94.1161" y="36.457" width="10.5045" height="25.9524" fill="#45A554"/>
<rect x="117.596" y="36.4565" width="10.5045" height="25.9524" fill="#45A554"/>
<path d="M94.1161 31.2044C94.1161 28.3037 96.4676 25.9521 99.3683 25.9521C102.269 25.9521 104.621 28.3037 104.621 31.2044V36.4567H94.1161V31.2044Z" fill="#45A554"/>
<path d="M117.596 31.2044C117.596 28.3037 119.947 25.9521 122.848 25.9521C125.749 25.9521 128.1 28.3037 128.1 31.2044V36.4567H117.596V31.2044Z" fill="#45A554"/>
<rect x="176.3" y="79.0925" width="11.1224" height="16.6837" fill="#AFD485"/>
<rect x="199.162" y="79.0925" width="11.1224" height="16.6837" fill="#AFD485"/>
<rect x="176.3" y="111.843" width="11.1224" height="16.6837" fill="#AFD485"/>
<rect x="199.162" y="111.843" width="11.1224" height="16.6837" fill="#AFD485"/>
<rect x="176.3" y="144.591" width="11.1224" height="16.6837" fill="#AFD485"/>
<rect x="199.162" y="144.591" width="11.1224" height="16.6837" fill="#AFD485"/>
<rect x="176.3" y="177.341" width="11.1224" height="16.6837" fill="#AFD485"/>
<rect x="199.162" y="177.341" width="11.1224" height="16.6837" fill="#AFD485"/>
<rect x="176.3" y="210.09" width="11.1224" height="16.6837" fill="#AFD485"/>
<rect x="199.162" y="210.09" width="11.1224" height="16.6837" fill="#AFD485"/>
<rect x="180.311" y="36.4573" width="96.7507" height="11.689" fill="#064D40"/>
<rect x="180.311" y="36.4573" width="44.2955" height="11.689" fill="#AFD485"/>
<rect x="168.072" y="48.1467" width="133.469" height="211.996" fill="#064D40"/>
<rect x="168.072" y="48.1467" width="56.535" height="211.996" fill="#AFD485"/>
<rect x="246.172" y="90.1211" width="55.3694" height="170.022" fill="#9CC653"/>
<rect x="235.099" y="90.1211" width="11.0739" height="170.022" fill="#89AD49"/>
<path d="M180.311 229.946C180.311 221.094 187.487 213.918 196.339 213.918C205.191 213.918 212.367 221.094 212.367 229.946V260.143H180.311V229.946Z" fill="#45A554"/>
<rect x="180.311" y="188.947" width="9.9082" height="14.3456" fill="#45A554"/>
<rect x="202.459" y="188.946" width="9.9082" height="14.3456" fill="#45A554"/>
<rect x="180.311" y="160.786" width="9.9082" height="14.3456" fill="#45A554"/>
<rect x="202.459" y="160.786" width="9.9082" height="14.3456" fill="#45A554"/>
<rect x="180.311" y="132.627" width="9.9082" height="14.3456" fill="#45A554"/>
<rect x="202.459" y="132.627" width="9.9082" height="14.3456" fill="#45A554"/>
<rect x="180.311" y="104.467" width="9.9082" height="14.3456" fill="#45A554"/>
<rect x="202.459" y="104.467" width="9.9082" height="14.3456" fill="#45A554"/>
<rect x="180.311" y="67.8059" width="9.9082" height="22.3153" fill="#45A554"/>
<rect x="202.459" y="67.8059" width="9.9082" height="22.3153" fill="#45A554"/>
<path d="M180.311 63.7285C180.311 60.9924 182.529 58.7744 185.265 58.7744C188.001 58.7744 190.219 60.9924 190.219 63.7285V67.8068H180.311V63.7285Z" fill="#45A554"/>
<path d="M202.459 63.7285C202.459 60.9924 204.677 58.7744 207.413 58.7744C210.149 58.7744 212.367 60.9924 212.367 63.7285V67.8068H202.459V63.7285Z" fill="#45A554"/>
<rect x="257.829" y="104.466" width="10.491" height="14.3456" fill="#AFD485"/>
<rect x="279.394" y="104.466" width="10.491" height="14.3456" fill="#AFD485"/>
<rect x="257.829" y="132.626" width="10.491" height="14.3456" fill="#AFD485"/>
<rect x="279.394" y="132.626" width="10.491" height="14.3456" fill="#AFD485"/>
<rect x="257.829" y="160.786" width="10.491" height="14.3456" fill="#AFD485"/>
<rect x="279.394" y="160.786" width="10.491" height="14.3456" fill="#AFD485"/>
<rect x="257.829" y="188.946" width="10.491" height="14.3456" fill="#AFD485"/>
<rect x="279.394" y="188.946" width="10.491" height="14.3456" fill="#AFD485"/>
<rect x="257.829" y="217.105" width="10.491" height="14.3456" fill="#AFD485"/>
<rect x="279.394" y="217.105" width="10.491" height="14.3456" fill="#AFD485"/>
</g>
<path d="M44.4616 264.95V221.313" stroke="#121715" stroke-width="4.06872"/>
<path fill-rule="evenodd" clip-rule="evenodd" d="M58.0441 209.495C59.8769 206.915 60.9545 203.76 60.9545 200.354C60.9545 191.625 53.8783 184.549 45.1493 184.549C36.4203 184.549 29.3441 191.625 29.3441 200.354C29.3441 203.58 30.3109 206.581 31.9707 209.082C28.651 212.381 26.5956 216.95 26.5956 222C26.5956 232.057 34.7487 240.211 44.806 240.211C54.8633 240.211 63.0163 232.057 63.0163 222C63.0163 217.158 61.1264 212.757 58.0441 209.495Z" fill="#E7BB4A"/>
<rect x="62.9791" y="81.9519" width="79.2174" height="9.57069" fill="#064D40"/>
<rect x="62.9791" y="81.9519" width="36.2682" height="9.57069" fill="#AFD485"/>
<rect x="52.9574" y="91.522" width="109.282" height="173.578" fill="#064D40"/>
<rect x="52.9574" y="91.522" width="46.2897" height="173.578" fill="#AFD485"/>
<path d="M62.9791 240.375C62.9791 233.127 68.8546 227.252 76.1024 227.252C83.3503 227.252 89.2258 233.127 89.2258 240.375V265.1H62.9791V240.375Z" fill="#45A554"/>
<rect x="62.9791" y="206.805" width="8.11263" height="11.7459" fill="#45A554"/>
<rect x="81.1131" y="206.805" width="8.11263" height="11.7459" fill="#45A554"/>
<rect x="62.9791" y="183.749" width="8.11263" height="11.7459" fill="black"/>
<rect x="81.1131" y="183.749" width="8.11263" height="11.7459" fill="#45A554"/>
<rect x="62.9791" y="160.693" width="8.11263" height="11.7459" fill="#45A554"/>
<rect x="81.1131" y="160.692" width="8.11263" height="11.7459" fill="white"/>
<rect x="62.9791" y="137.635" width="8.11263" height="11.7459" fill="#45A554"/>
<rect x="81.1131" y="137.635" width="8.11263" height="11.7459" fill="#45A554"/>
<rect x="62.9791" y="107.618" width="8.11263" height="18.2713" fill="#45A554"/>
<rect x="81.1131" y="107.618" width="8.11263" height="18.2713" fill="#45A554"/>
<path d="M62.9791 104.279C62.9791 102.038 64.7951 100.222 67.0354 100.222C69.2756 100.222 71.0917 102.038 71.0917 104.279V107.618H62.9791V104.279Z" fill="#45A554"/>
<path d="M81.1129 104.279C81.1129 102.038 82.929 100.222 85.1693 100.222C87.4095 100.222 89.2256 102.038 89.2256 104.279V107.618H81.1129V104.279Z" fill="#45A554"/>
<rect x="130.019" y="52.1021" width="83.9851" height="11.1306" fill="#064D40"/>
<rect x="130.019" y="52.1021" width="38.451" height="11.1306" fill="#AFD485"/>
<rect x="119.393" y="63.2336" width="115.859" height="201.868" fill="#064D40"/>
<rect x="119.393" y="63.2336" width="49.0756" height="201.868" fill="#AFD485"/>
<path d="M130.018 234.998C130.018 227.314 136.247 221.085 143.931 221.085C151.615 221.085 157.844 227.314 157.844 234.998V265.101H130.018V234.998Z" fill="#45A554"/>
<rect x="130.018" y="197.307" width="8.60089" height="13.6602" fill="#45A554"/>
<rect x="149.242" y="197.307" width="8.60089" height="13.6602" fill="#45A554"/>
<rect x="130.018" y="170.491" width="8.60089" height="13.6602" fill="#45A554"/>
<rect x="149.242" y="170.491" width="8.60089" height="13.6602" fill="white"/>
<rect x="130.018" y="143.677" width="8.60089" height="13.6602" fill="black"/>
<rect x="149.242" y="143.677" width="8.60089" height="13.6602" fill="#45A554"/>
<rect x="130.018" y="116.862" width="8.60089" height="13.6602" fill="white"/>
<rect x="149.242" y="116.862" width="8.60089" height="13.6602" fill="#45A554"/>
<rect x="130.018" y="81.9543" width="8.60089" height="21.2492" fill="#45A554"/>
<rect x="149.242" y="81.9536" width="8.60089" height="21.2492" fill="#45A554"/>
<path d="M130.018 77.6525C130.018 75.2774 131.943 73.3521 134.318 73.3521C136.693 73.3521 138.618 75.2774 138.618 77.6525V81.9529H130.018V77.6525Z" fill="#45A554"/>
<path d="M149.242 77.6525C149.242 75.2774 151.168 73.3521 153.543 73.3521C155.918 73.3521 157.843 75.2774 157.843 77.6525V81.9529H149.242V77.6525Z" fill="#45A554"/>
<rect x="197.307" y="116.862" width="9.10682" height="13.6602" fill="#AFD485"/>
<rect x="216.027" y="116.862" width="9.10682" height="13.6602" fill="#AFD485"/>
<rect x="197.307" y="143.676" width="9.10682" height="13.6602" fill="#AFD485"/>
<rect x="216.027" y="143.676" width="9.10682" height="13.6602" fill="#AFD485"/>
<rect x="197.307" y="170.491" width="9.10682" height="13.6602" fill="#AFD485"/>
<rect x="216.027" y="170.491" width="9.10682" height="13.6602" fill="#AFD485"/>
<rect x="197.307" y="197.305" width="9.10682" height="13.6602" fill="#AFD485"/>
<rect x="216.027" y="197.305" width="9.10682" height="13.6602" fill="#AFD485"/>
<rect x="197.307" y="224.12" width="9.10682" height="13.6602" fill="#AFD485"/>
<rect x="216.027" y="224.12" width="9.10682" height="13.6602" fill="#AFD485"/>
<rect x="200.592" y="81.9519" width="79.2174" height="9.57069" fill="#064D40"/>
<rect x="200.592" y="81.9519" width="36.2682" height="9.57069" fill="#AFD485"/>
<rect x="190.571" y="91.5227" width="109.282" height="173.578" fill="#064D40"/>
<rect x="190.571" y="91.5227" width="46.2897" height="173.578" fill="#AFD485"/>
<rect x="254.517" y="125.89" width="42.1439" height="139.21" fill="#50AE55"/>
<rect x="245.449" y="125.89" width="9.06705" height="139.21" fill="#AFD485"/>
<path d="M200.592 240.376C200.592 233.128 206.467 227.252 213.715 227.252C220.963 227.252 226.838 233.128 226.838 240.376V265.1H200.592V240.376Z" fill="#45A554"/>
<rect x="200.592" y="206.806" width="8.11263" height="11.7459" fill="white"/>
<rect x="218.726" y="206.806" width="8.11263" height="11.7459" fill="#45A554"/>
<rect x="200.592" y="183.75" width="8.11263" height="11.7459" fill="#45A554"/>
<rect x="218.726" y="183.75" width="8.11263" height="11.7459" fill="#45A554"/>
<rect x="200.592" y="160.693" width="8.11263" height="11.7459" fill="#45A554"/>
<rect x="218.726" y="160.692" width="8.11263" height="11.7459" fill="white"/>
<rect x="200.592" y="137.637" width="8.11263" height="11.7459" fill="#45A554"/>
<rect x="218.726" y="137.636" width="8.11263" height="11.7459" fill="#45A554"/>
<rect x="200.592" y="107.619" width="8.11263" height="18.2713" fill="#45A554"/>
<rect x="218.726" y="107.619" width="8.11263" height="18.2713" fill="#45A554"/>
<path d="M200.592 104.28C200.592 102.039 202.408 100.223 204.648 100.223C206.888 100.223 208.704 102.039 208.704 104.28V107.619H200.592V104.28Z" fill="#45A554"/>
<path d="M218.726 104.28C218.726 102.039 220.542 100.223 222.782 100.223C225.022 100.223 226.838 102.039 226.838 104.28V107.619H218.726V104.28Z" fill="#45A554"/>
<rect x="264.062" y="137.636" width="8.58984" height="11.7459" fill="#AFD485"/>
<rect x="281.719" y="137.636" width="8.58984" height="11.7459" fill="#AFD485"/>
<rect x="264.062" y="160.692" width="8.58984" height="11.7459" fill="#AFD485"/>
<rect x="281.719" y="160.692" width="8.58984" height="11.7459" fill="white"/>
<rect x="264.062" y="183.749" width="8.58984" height="11.7459" fill="#AFD485"/>
<rect x="281.719" y="183.749" width="8.58984" height="11.7459" fill="black"/>
<rect x="264.062" y="206.806" width="8.58984" height="11.7459" fill="white"/>
<rect x="281.719" y="206.806" width="8.58984" height="11.7459" fill="#AFD485"/>
<rect x="264.062" y="229.863" width="8.58984" height="11.7459" fill="#AFD485"/>
<rect x="281.719" y="229.863" width="8.58984" height="11.7459" fill="#AFD485"/>
<path d="M318.482 266.899V200.212" stroke="#121715" stroke-width="6.21809"/>
<path fill-rule="evenodd" clip-rule="evenodd" d="M339.24 182.152C342.041 178.208 343.687 173.387 343.687 168.181C343.687 154.841 332.873 144.026 319.533 144.026C306.193 144.026 295.378 154.841 295.378 168.181C295.378 173.112 296.856 177.698 299.393 181.52C294.319 186.562 291.178 193.545 291.178 201.262C291.178 216.633 303.638 229.093 319.008 229.093C334.379 229.093 346.839 216.633 346.839 201.262C346.839 193.862 343.95 187.137 339.24 182.152Z" fill="#348B42"/>
<path d="M299.249 266.9V225.501" stroke="#121715" stroke-width="3.86006"/>
<path fill-rule="evenodd" clip-rule="evenodd" d="M312.134 214.29C313.873 211.842 314.896 208.849 314.896 205.617C314.896 197.336 308.182 190.622 299.901 190.622C291.62 190.622 284.906 197.336 284.906 205.617C284.906 208.678 285.824 211.525 287.398 213.898C284.249 217.028 282.299 221.363 282.299 226.154C282.299 235.695 290.034 243.43 299.575 243.43C309.117 243.43 316.852 235.695 316.852 226.154C316.852 221.56 315.059 217.385 312.134 214.29Z" fill="#45A554"/>
</g>
<defs>
<clipPath id="clip0">
<rect width="357" height="260.1" fill="white"/>
</clipPath>
</defs>
</svg>
