<svg width="186" height="50" viewBox="0 0 186 50" fill="none" xmlns="http://www.w3.org/2000/svg">
<path d="M22.5583 10.9756H11.2791V0H0V33.1301L11.0741 44.1057H33.6324V21.9512L22.5583 10.9756ZM22.5583 33.3333H11.2791V22.1545H22.5583V33.3333Z" fill="white"/>
<path d="M70.5459 23.7805C73.417 25.4065 74.6474 27.8455 74.6474 31.0975C74.6474 33.7398 73.6221 35.9756 71.7764 37.6016C69.9307 39.2276 67.4698 40.2439 64.8038 40.2439H51.2688V8.73981H63.7784C66.4444 8.73981 68.9053 9.55281 70.751 11.1788C72.5967 12.8048 73.6221 15.0406 73.6221 17.4796C73.6221 20.1219 72.5967 22.3577 70.5459 23.7805ZM63.7784 14.4309H57.4211V21.3414H63.7784C64.8038 21.3414 65.6241 20.9349 66.2393 20.3252C66.8546 19.7154 67.2647 18.9024 67.2647 17.8861C67.2647 16.8699 66.8546 16.0569 66.2393 15.4471C65.6241 14.8374 64.8038 14.4309 63.7784 14.4309ZM64.8038 34.3496C65.8292 34.3496 66.6495 33.9431 67.4698 33.3333C68.085 32.7235 68.4952 31.7073 68.4952 30.691C68.4952 29.6748 68.085 28.6585 67.4698 28.0487C66.8546 27.439 65.8292 27.0325 64.8038 27.0325H57.6262V34.5528H64.8038V34.3496Z" fill="white"/>
<path d="M98.4362 37.3983C96.1804 39.6341 93.3093 40.8536 89.823 40.8536C86.5418 40.8536 83.6708 39.6341 81.2098 37.3983C78.954 35.1626 77.7236 32.317 77.7236 28.8617C77.7236 25.4065 78.954 22.7642 81.2098 20.3252C83.4657 18.0894 86.3367 16.8699 89.823 16.8699C93.1042 16.8699 95.9753 18.0894 98.4362 20.3252C100.692 22.5609 101.922 25.4065 101.922 28.8617C101.922 32.317 100.692 35.1626 98.4362 37.3983ZM85.3114 33.5365C86.5418 34.7561 87.9773 35.3658 89.6179 35.3658C91.4636 35.3658 92.8991 34.7561 94.1296 33.5365C95.3601 32.317 95.9753 30.8943 95.9753 29.065C95.9753 27.2357 95.3601 25.813 94.1296 24.5935C92.8991 23.3739 91.4636 22.7642 89.6179 22.7642C87.7723 22.7642 86.3367 23.3739 85.3114 24.5935C84.0809 25.813 83.4657 27.2357 83.4657 29.065C83.4657 30.8943 84.286 32.317 85.3114 33.5365Z" fill="white"/>
<path d="M118.534 23.374H113.407V32.7236C113.407 33.5366 113.612 34.1463 114.022 34.3496C114.432 34.7561 115.047 34.9593 115.663 34.9593C116.483 34.9593 117.303 34.9593 118.534 34.9593V40.2439C114.432 40.6504 111.561 40.2439 109.92 39.0244C108.28 37.8049 107.459 35.5691 107.459 32.5203V23.1707H103.563V17.6829H107.459V13.2114L113.407 11.3821V17.6829H118.534V23.374Z" fill="white"/>
<path d="M125.506 15.0406C124.481 15.0406 123.66 14.6341 123.045 14.0244C122.43 13.4146 122.02 12.3984 122.02 11.5853C122.02 10.5691 122.43 9.75608 123.045 9.14633C123.66 8.33332 124.686 8.13007 125.506 8.13007C126.532 8.13007 127.352 8.53657 128.172 9.14633C128.787 9.55283 129.197 10.3658 129.197 11.3821C129.197 12.3984 128.787 13.2114 128.172 13.8211C127.352 14.6341 126.532 15.0406 125.506 15.0406ZM122.635 40.2439V17.6829H128.582V40.2439H122.635Z" fill="white"/>
<path d="M151.346 17.6829H157.088V39.2276C157.088 42.6829 155.857 45.3252 153.601 47.1544C151.346 48.9837 148.475 50 145.193 50C142.732 50 140.477 49.5935 138.631 48.5772C136.785 47.5609 135.35 46.3414 134.324 44.5122L139.246 41.6666C140.477 43.6992 142.322 44.9187 145.193 44.9187C147.039 44.9187 148.475 44.5122 149.5 43.4959C150.525 42.4796 151.141 41.2601 151.141 39.4309V36.9918C149.5 39.2276 147.039 40.4471 143.758 40.4471C140.477 40.4471 137.811 39.2276 135.76 36.9918C133.504 34.7561 132.479 32.1138 132.479 28.8618C132.479 25.6097 133.504 22.9675 135.76 20.7317C138.016 18.4959 140.682 17.2764 143.758 17.2764C146.834 17.2764 149.295 18.4959 151.141 20.7317V17.6829H151.346ZM140.477 33.1301C141.707 34.3496 143.143 34.9593 144.988 34.9593C146.834 34.9593 148.27 34.3496 149.5 33.1301C150.73 31.9105 151.346 30.4878 151.346 28.6585C151.346 26.8292 150.73 25.4065 149.5 24.187C148.27 22.9675 146.834 22.3577 144.988 22.3577C143.143 22.3577 141.707 22.9675 140.477 24.187C139.246 25.4065 138.631 26.8292 138.631 28.6585C138.631 30.4878 139.246 31.9105 140.477 33.1301Z" fill="white"/>
<path d="M179.646 17.6829H185.593V40.2439H179.646V37.6016C177.8 39.8374 175.339 40.8536 172.263 40.8536C169.187 40.8536 166.521 39.6341 164.47 37.3984C162.215 35.1626 161.189 32.3171 161.189 28.8618C161.189 25.4065 162.215 22.7642 164.47 20.3252C166.726 18.2927 169.187 17.0732 172.263 17.0732C175.545 17.0732 178.005 18.0894 179.646 20.3252V17.6829ZM168.982 33.5366C170.213 34.7561 171.648 35.3658 173.494 35.3658C175.339 35.3658 176.775 34.7561 178.005 33.5366C179.236 32.3171 179.851 30.8943 179.851 28.8618C179.851 26.8292 179.236 25.4065 178.005 24.187C176.775 22.9675 175.339 22.3577 173.494 22.3577C171.648 22.3577 170.213 22.9675 168.982 24.187C167.752 25.4065 167.136 26.8292 167.136 28.8618C167.136 30.8943 167.752 32.3171 168.982 33.5366Z" fill="white"/>
</svg>
